<svg width="67" height="57" viewBox="0 0 67 57" fill="none" xmlns="http://www.w3.org/2000/svg">
<path fill-rule="evenodd" clip-rule="evenodd" d="M13.2652 16.0572C15.3437 6.8665 23.6125 0 33.5 0C43.3875 0 51.6563 6.86651 53.7348 16.0573C61.2662 17.3259 67 23.8308 67 31.6667C67 36.7178 66.0583 41.8086 61.5064 44.8328C60.7743 45.3192 59.7835 45.1245 59.2934 44.3978C58.8033 43.6711 58.9995 42.6877 59.7317 42.2013C62.8751 40.1128 63.8095 36.4968 63.8095 31.6667C63.8095 25.0708 58.729 19.651 52.2413 19.0546C51.5185 18.9881 50.9321 18.4458 50.8143 17.7348C49.4456 9.4712 42.213 3.16667 33.5 3.16667C24.787 3.16667 17.5544 9.4712 16.1857 17.7348C16.0679 18.4458 15.4815 18.9881 14.7587 19.0546C8.27098 19.651 3.19048 25.0708 3.19048 31.6667C3.19048 36.0569 5.43939 39.9263 8.86356 42.2013C9.5957 42.6877 9.79193 43.6711 9.30185 44.3978C8.81177 45.1245 7.82096 45.3192 7.08882 44.8328C2.81765 41.9951 0 37.1578 0 31.6667C0 23.8308 5.73383 17.3259 13.2652 16.0572ZM30.7881 28.5C31.4725 28.5 32.0807 28.9334 32.2996 29.577L39.4024 50.4653L42.198 42.2437C42.4169 41.6 43.0251 41.1667 43.7095 41.1667H49.4524C50.3334 41.1667 51.0476 41.8756 51.0476 42.75C51.0476 43.6245 50.3334 44.3333 49.4524 44.3333H44.8548L40.9139 55.923C40.695 56.5666 40.0868 57 39.4024 57C38.7179 57 38.1098 56.5666 37.8909 55.923L30.7881 35.0347L27.9924 43.2563C27.7736 43.9 27.1654 44.3333 26.481 44.3333H20.7381C19.8571 44.3333 19.1429 43.6245 19.1429 42.75C19.1429 41.8756 19.8571 41.1667 20.7381 41.1667H25.3357L29.2766 29.577C29.4955 28.9334 30.1037 28.5 30.7881 28.5Z" fill="#00AAFF"/>
</svg>
